<svg width="32" height="32" viewBox="0 0 32 32" fill="none" xmlns="http://www.w3.org/2000/svg">
<path d="M24.4097 13.2116C25.1193 13.2116 25.6945 12.924 25.6945 12.5692C25.6945 12.2145 25.1193 11.9269 24.4097 11.9269C23.7002 11.9269 23.125 12.2145 23.125 12.5692C23.125 12.924 23.7002 13.2116 24.4097 13.2116Z" fill="#828282"/>
<path d="M26.8328 2.48466H25.2179V1.24233C25.2179 1.07919 25.1858 0.917638 25.1233 0.766911C25.0609 0.616185 24.9694 0.479231 24.854 0.36387C24.7387 0.248509 24.6017 0.157 24.451 0.0945668C24.3003 0.0321338 24.1387 0 23.9756 0C23.8124 0 23.6509 0.0321338 23.5002 0.0945668C23.3494 0.157 23.2125 0.248509 23.0971 0.36387C22.9817 0.479231 22.8902 0.616185 22.8278 0.766911C22.7654 0.917638 22.7332 1.07919 22.7332 1.24233V2.48466H17.0869V1.24233C17.0869 1.07919 17.0547 0.917638 16.9923 0.766911C16.9299 0.616185 16.8384 0.479231 16.723 0.36387C16.6076 0.248509 16.4707 0.157 16.32 0.0945668C16.1692 0.0321339 16.0077 2.16884e-08 15.8445 2.16884e-08C15.6814 2.16884e-08 15.5198 0.0321339 15.3691 0.0945668C15.2184 0.157 15.0814 0.248509 14.9661 0.36387C14.8507 0.479231 14.7592 0.616185 14.6968 0.766911C14.6343 0.917638 14.6022 1.07919 14.6022 1.24233V2.48466H9.00593V1.24233C9.00593 1.07919 8.9738 0.917638 8.91137 0.766911C8.84893 0.616185 8.75743 0.479231 8.64206 0.36387C8.5267 0.248509 8.38975 0.157 8.23902 0.0945668C8.0883 0.0321339 7.92675 3.70243e-08 7.7636 3.70243e-08C7.60046 3.70243e-08 7.43891 0.0321339 7.28818 0.0945668C7.13746 0.157 7.0005 0.248509 6.88514 0.36387C6.76978 0.479231 6.67827 0.616185 6.61584 0.766911C6.55341 0.917638 6.52127 1.07919 6.52127 1.24233V2.48466H4.96932C3.65224 2.48602 2.38945 3.00966 1.45789 3.94074C0.526329 4.87181 0.00204024 6.13433 0 7.45142L0 26.8328C0.00136038 28.1503 0.525349 29.4135 1.45698 30.3451C2.38862 31.2768 3.65179 31.8008 4.96932 31.8021H14.4763C14.8058 31.8021 15.1218 31.6712 15.3548 31.4383C15.5877 31.2053 15.7186 30.8893 15.7186 30.5598C15.7186 30.2303 15.5877 29.9143 15.3548 29.6813C15.1218 29.4484 14.8058 29.3175 14.4763 29.3175H4.96932C4.31056 29.3168 3.67897 29.0548 3.21315 28.589C2.74734 28.1232 2.48534 27.4916 2.48466 26.8328V7.45142C2.48602 6.7931 2.74832 6.16217 3.21406 5.69691C3.6798 5.23164 4.311 4.97 4.96932 4.96932H6.52127V6.21165C6.52127 6.3748 6.55341 6.53635 6.61584 6.68707C6.67827 6.8378 6.76978 6.97475 6.88514 7.09011C7.0005 7.20548 7.13746 7.29699 7.28818 7.35942C7.43891 7.42185 7.60046 7.45398 7.7636 7.45398C7.92675 7.45398 8.0883 7.42185 8.23902 7.35942C8.38975 7.29699 8.5267 7.20548 8.64206 7.09011C8.75743 6.97475 8.84893 6.8378 8.91137 6.68707C8.9738 6.53635 9.00593 6.3748 9.00593 6.21165V4.96932H14.5958V6.21165C14.5958 6.54114 14.7267 6.85713 14.9597 7.09011C15.1926 7.3231 15.5086 7.45398 15.8381 7.45398C16.1676 7.45398 16.4836 7.3231 16.7166 7.09011C16.9496 6.85713 17.0804 6.54114 17.0804 6.21165V4.96932H22.7332V6.21165C22.7332 6.3748 22.7654 6.53635 22.8278 6.68707C22.8902 6.8378 22.9817 6.97475 23.0971 7.09011C23.2125 7.20548 23.3494 7.29699 23.5002 7.35942C23.6509 7.42185 23.8124 7.45398 23.9756 7.45398C24.1387 7.45398 24.3003 7.42185 24.451 7.35942C24.6017 7.29699 24.7387 7.20548 24.854 7.09011C24.9694 6.97475 25.0609 6.8378 25.1233 6.68707C25.1858 6.53635 25.2179 6.3748 25.2179 6.21165V4.96932H26.8328C27.4911 4.97 28.1223 5.23164 28.5881 5.69691C29.0538 6.16217 29.3161 6.7931 29.3175 7.45142V14.5328C29.3175 14.8623 29.4484 15.1783 29.6813 15.4113C29.9143 15.6443 30.2303 15.7752 30.5598 15.7752C30.8893 15.7752 31.2053 15.6443 31.4383 15.4113C31.6712 15.1783 31.8021 14.8623 31.8021 14.5328V7.45142C31.8001 6.13433 31.2758 4.87181 30.3442 3.94074C29.4127 3.00966 28.1499 2.48602 26.8328 2.48466Z" fill="#828282"/>
<path d="M24.2867 16.7705C22.8002 16.7705 21.3471 17.2113 20.1112 18.0371C18.8752 18.863 17.912 20.0367 17.3431 21.41C16.7743 22.7833 16.6254 24.2945 16.9154 25.7524C17.2054 27.2103 17.9212 28.5494 18.9723 29.6005C20.0234 30.6516 21.3625 31.3674 22.8204 31.6574C24.2783 31.9474 25.7894 31.7986 27.1628 31.2297C28.5361 30.6609 29.7099 29.6976 30.5357 28.4616C31.3615 27.2257 31.8023 25.7726 31.8023 24.2862C31.7999 22.2936 31.0073 20.3834 29.5984 18.9744C28.1895 17.5655 26.2792 16.7729 24.2867 16.7705ZM24.2867 29.3171C23.2916 29.3171 22.3189 29.0221 21.4916 28.4693C20.6642 27.9165 20.0194 27.1307 19.6386 26.2115C19.2578 25.2922 19.1582 24.2806 19.3523 23.3047C19.5465 22.3287 20.0256 21.4323 20.7292 20.7287C21.4328 20.0251 22.3292 19.546 23.3052 19.3518C24.2811 19.1577 25.2927 19.2573 26.212 19.6381C27.1312 20.0189 27.917 20.6637 28.4698 21.4911C29.0226 22.3184 29.3176 23.2911 29.3176 24.2862C29.3159 25.6199 28.7853 26.8986 27.8422 27.8417C26.8991 28.7848 25.6204 29.3154 24.2867 29.3171Z" fill="#828282"/>
<path d="M26.0879 23.0427H25.5291V21.7387C25.5291 21.4092 25.3982 21.0932 25.1652 20.8602C24.9323 20.6272 24.6163 20.4963 24.2868 20.4963C23.9573 20.4963 23.6413 20.6272 23.4083 20.8602C23.1753 21.0932 23.0444 21.4092 23.0444 21.7387V24.285C23.0444 24.6145 23.1753 24.9305 23.4083 25.1635C23.6413 25.3965 23.9573 25.5273 24.2868 25.5273H26.0854C26.4149 25.5273 26.7309 25.3965 26.9639 25.1635C27.1968 24.9305 27.3277 24.6145 27.3277 24.285C27.3277 23.9555 27.1968 23.6395 26.9639 23.4065C26.7309 23.1736 26.4149 23.0427 26.0854 23.0427H26.0879Z" fill="#828282"/>
<path d="M18.6282 13.2116C18.983 13.2116 19.2706 12.924 19.2706 12.5692C19.2706 12.2145 18.983 11.9269 18.6282 11.9269C18.2734 11.9269 17.9858 12.2145 17.9858 12.5692C17.9858 12.924 18.2734 13.2116 18.6282 13.2116Z" fill="#828282"/>
<path d="M13.4895 18.3506C13.8443 18.3506 14.1319 18.063 14.1319 17.7083C14.1319 17.3535 13.8443 17.0659 13.4895 17.0659C13.1348 17.0659 12.8472 17.3535 12.8472 17.7083C12.8472 18.063 13.1348 18.3506 13.4895 18.3506Z" fill="#828282"/>
<path d="M7.70855 13.2116C8.41809 13.2116 8.99328 12.924 8.99328 12.5692C8.99328 12.2145 8.41809 11.9269 7.70855 11.9269C6.99902 11.9269 6.42383 12.2145 6.42383 12.5692C6.42383 12.924 6.99902 13.2116 7.70855 13.2116Z" fill="#828282"/>
<path d="M7.70855 18.3506C8.41809 18.3506 8.99328 18.063 8.99328 17.7083C8.99328 17.3535 8.41809 17.0659 7.70855 17.0659C6.99902 17.0659 6.42383 17.3535 6.42383 17.7083C6.42383 18.063 6.99902 18.3506 7.70855 18.3506Z" fill="#828282"/>
<path d="M7.70855 23.4897C8.41809 23.4897 8.99328 23.2021 8.99328 22.8473C8.99328 22.4926 8.41809 22.205 7.70855 22.205C6.99902 22.205 6.42383 22.4926 6.42383 22.8473C6.42383 23.2021 6.99902 23.4897 7.70855 23.4897Z" fill="#828282"/>
<path d="M13.4895 23.4897C13.8443 23.4897 14.1319 23.2021 14.1319 22.8473C14.1319 22.4926 13.8443 22.205 13.4895 22.205C13.1348 22.205 12.8472 22.4926 12.8472 22.8473C12.8472 23.2021 13.1348 23.4897 13.4895 23.4897Z" fill="#828282"/>
<path d="M13.4895 13.2116C13.8443 13.2116 14.1319 12.924 14.1319 12.5692C14.1319 12.2145 13.8443 11.9269 13.4895 11.9269C13.1348 11.9269 12.8472 12.2145 12.8472 12.5692C12.8472 12.924 13.1348 13.2116 13.4895 13.2116Z" fill="#828282"/>
</svg>
