<svg width="38" height="30" viewBox="0 0 38 30" fill="none" xmlns="http://www.w3.org/2000/svg">
<path d="M35.8574 4.80208C35.4838 4.41064 35.0337 4.10013 34.5351 3.8898C34.0366 3.67948 33.5001 3.57383 32.959 3.57941H27.1623V3.50919C27.1662 3.08671 27.0847 2.66781 26.9226 2.27764C26.7605 1.88747 26.5213 1.53408 26.2192 1.23871C25.9217 0.939381 25.568 0.701925 25.1783 0.540044C24.7886 0.378164 24.3707 0.295063 23.9487 0.29554H13.472C13.0474 0.291725 12.6262 0.371945 12.2328 0.531583C11.8393 0.691221 11.4813 0.927126 11.1794 1.2257C10.8775 1.52428 10.6377 1.87963 10.4737 2.2713C10.3097 2.66296 10.2248 3.0832 10.2239 3.50781V3.57803H4.46302C3.92193 3.57245 3.38547 3.6781 2.8869 3.88843C2.38833 4.09875 1.93828 4.40926 1.56468 4.8007C0.792357 5.56936 0.353211 6.61084 0.342007 7.70042V25.0905C0.336429 25.6316 0.442078 26.168 0.652402 26.6666C0.862725 27.1652 1.17324 27.6152 1.56468 27.9888C2.33299 28.7608 3.37392 29.1999 4.46302 29.2115H32.9645C33.5056 29.2171 34.0421 29.1114 34.5407 28.9011C35.0392 28.6908 35.4893 28.3803 35.8629 27.9888C36.6349 27.2205 37.074 26.1796 37.0855 25.0905V7.70042C37.0904 7.15893 36.9839 6.62222 36.7726 6.12363C36.5613 5.62504 36.2498 5.17521 35.8574 4.80208ZM35.2639 25.0918H35.2295C35.2302 25.3902 35.172 25.6858 35.0582 25.9616C34.9443 26.2374 34.7771 26.488 34.5661 26.6989C34.3551 26.9099 34.1045 27.0771 33.8288 27.191C33.553 27.3048 33.2574 27.3631 32.959 27.3623H4.46302C4.16465 27.3631 3.86908 27.3048 3.59329 27.191C3.31749 27.0771 3.06691 26.9099 2.85593 26.6989C2.64495 26.488 2.47774 26.2374 2.36389 25.9616C2.25004 25.6858 2.19181 25.3902 2.19254 25.0918V7.70042C2.19181 7.40205 2.25004 7.10648 2.36389 6.83069C2.47774 6.55489 2.64495 6.30431 2.85593 6.09333C3.06691 5.88235 3.31749 5.71514 3.59329 5.60129C3.86908 5.48745 4.16465 5.42922 4.46302 5.42994H11.2029C11.3269 5.43049 11.4498 5.40647 11.5645 5.35926C11.6791 5.31206 11.7833 5.24261 11.871 5.15492C11.9587 5.06723 12.0282 4.96303 12.0754 4.84835C12.1226 4.73368 12.1466 4.61079 12.146 4.48677V3.47339C12.1395 3.2928 12.1702 3.1128 12.2363 2.94462C12.3025 2.77645 12.4025 2.6237 12.5303 2.49592C12.6581 2.36814 12.8108 2.26807 12.979 2.20196C13.1472 2.13584 13.3272 2.1051 13.5078 2.11165H23.9487C24.1293 2.1051 24.3093 2.13584 24.4775 2.20196C24.6456 2.26807 24.7984 2.36814 24.9262 2.49592C25.0539 2.6237 25.154 2.77645 25.2201 2.94462C25.2862 3.1128 25.317 3.2928 25.3104 3.47339V4.48677C25.3099 4.61079 25.3339 4.73368 25.3811 4.84835C25.4283 4.96303 25.4978 5.06723 25.5855 5.15492C25.6731 5.24261 25.7773 5.31206 25.892 5.35926C26.0067 5.40647 26.1296 5.43049 26.2536 5.42994H32.9934C33.2918 5.42922 33.5874 5.48745 33.8632 5.60129C34.139 5.71514 34.3896 5.88235 34.6005 6.09333C34.8115 6.30431 34.9787 6.55489 35.0926 6.83069C35.2064 7.10648 35.2647 7.40205 35.2639 7.70042V25.0918Z" fill="#6B6B6B"/>
<path d="M18.7102 7.80487C16.7243 7.80626 14.8003 8.49611 13.2659 9.75691C11.7316 11.0177 10.6818 12.7715 10.2954 14.7194C9.90903 16.6674 10.2099 18.6891 11.1469 20.4401C12.0838 22.1911 13.5989 23.5631 15.4339 24.3224C17.2689 25.0817 19.3104 25.1813 21.2107 24.6042C23.1109 24.0272 24.7523 22.8092 25.8553 21.1578C26.9583 19.5063 27.4546 17.5235 27.2597 15.5472C27.0648 13.5709 26.1907 11.7233 24.7864 10.3191C23.1737 8.70969 20.9886 7.80554 18.7102 7.80487ZM23.4591 21.1799C22.1955 22.4328 20.4882 23.1357 18.7088 23.1357C16.9295 23.1357 15.2221 22.4328 13.9586 21.1799C13.3353 20.5566 12.8417 19.8161 12.5061 19.001C12.1705 18.1859 11.9997 17.3125 12.0034 16.4311C12.0119 14.6539 12.7133 12.9501 13.9586 11.6822C14.5819 11.0589 15.3224 10.5653 16.1375 10.2297C16.9526 9.89414 17.826 9.72328 18.7075 9.727C20.4846 9.73546 22.1884 10.4369 23.4563 11.6822C24.0796 12.3055 24.5732 13.046 24.9088 13.8611C25.2444 14.6762 25.4152 15.5496 25.4115 16.4311C25.4236 17.3134 25.2568 18.1891 24.9213 19.0053C24.5857 19.8214 24.0883 20.5612 23.4591 21.1799Z" fill="#6B6B6B"/>
<path d="M31.1431 11.1937C32.0883 11.1937 32.8546 10.4274 32.8546 9.48222C32.8546 8.537 32.0883 7.77075 31.1431 7.77075C30.1979 7.77075 29.4316 8.537 29.4316 9.48222C29.4316 10.4274 30.1979 11.1937 31.1431 11.1937Z" fill="#6B6B6B"/>
</svg>
