<svg width="24" height="24" viewBox="0 0 24 24" fill="none" xmlns="http://www.w3.org/2000/svg">
<path d="M12.342 0.0371094C10.0611 0.0373071 7.83138 0.713496 5.93493 1.98017C4.03847 3.24684 2.56042 5.04712 1.68767 7.15334C0.814922 9.25955 0.586674 11.5771 1.03179 13.813C1.4769 16.0489 2.57539 18.1026 4.18834 19.7145C5.8013 21.3264 7.85627 22.4241 10.0934 22.8688C12.3306 23.3135 14.6494 23.0852 16.7567 22.2127C18.864 21.3403 20.6652 19.8629 21.9324 17.9674C23.1996 16.0719 23.876 13.8434 23.876 11.5637C23.876 10.0499 23.5776 8.55094 22.998 7.15241C22.4183 5.75388 21.5687 4.48316 20.4977 3.41281C19.4267 2.34245 18.1552 1.49343 16.7558 0.914229C15.3564 0.335024 13.8566 0.0369782 12.342 0.0371094ZM17.328 13.7564H12.439C12.422 13.7564 12.407 13.7564 12.391 13.7564C12.375 13.7564 12.359 13.7564 12.343 13.7564C12.1308 13.7564 11.9274 13.6722 11.7773 13.5223C11.6273 13.3723 11.543 13.1689 11.543 12.9569V4.82043C11.543 4.60838 11.6273 4.40501 11.7773 4.25507C11.9274 4.10512 12.1308 4.02088 12.343 4.02088C12.5552 4.02088 12.7587 4.10512 12.9087 4.25507C13.0587 4.40501 13.143 4.60838 13.143 4.82043V12.1613H17.331C17.5432 12.1613 17.7467 12.2456 17.8967 12.3955C18.0467 12.5455 18.131 12.7488 18.131 12.9609C18.131 13.1729 18.0467 13.3763 17.8967 13.5263C17.7467 13.6762 17.5432 13.7604 17.331 13.7604L17.328 13.7564Z" fill="#43CE8F"/>
</svg>
