<svg width="27" height="27" viewBox="0 0 27 27" fill="none" xmlns="http://www.w3.org/2000/svg">
<path d="M15.9847 13.4871L26.4879 2.98385C26.8156 2.65624 26.9999 2.21183 27 1.74838C27.0001 1.28494 26.8161 0.840425 26.4885 0.51263C26.1609 0.184834 25.7165 0.000609279 25.2531 0.000481565C24.7896 0.000353851 24.3451 0.184334 24.0173 0.511948L13.5101 11.0152L3.01105 0.511948C2.68326 0.184153 2.23868 0 1.77511 0C1.31154 0 0.86696 0.184153 0.539167 0.511948C0.211375 0.839744 0.0272226 1.28433 0.0272226 1.7479C0.0272226 2.21147 0.211375 2.65606 0.539167 2.98385L11.0423 13.4871L0.539167 23.9903C0.371064 24.1512 0.236789 24.344 0.144221 24.5575C0.0516525 24.771 0.00265552 25.0008 0.000104982 25.2335C-0.00244556 25.4662 0.0415018 25.697 0.129368 25.9125C0.217235 26.1279 0.34725 26.3237 0.511786 26.4882C0.676321 26.6528 0.872062 26.7828 1.08752 26.8706C1.30298 26.9585 1.53382 27.0024 1.7665 26.9999C1.99917 26.9973 2.22899 26.9483 2.44248 26.8558C2.65596 26.7632 2.8488 26.6289 3.00969 26.4608L13.5101 15.9576L24.0132 26.4608C24.3432 26.7767 24.7838 26.9507 25.2406 26.9457C25.6973 26.9407 26.134 26.757 26.457 26.434C26.78 26.111 26.9637 25.6744 26.9687 25.2176C26.9737 24.7609 26.7996 24.3203 26.4838 23.9903L15.9847 13.4871Z" fill="#B4B4B4"/>
</svg>
