<svg width="21" height="21" viewBox="0 0 21 21" fill="none" xmlns="http://www.w3.org/2000/svg">
<path d="M11.8244 20.2329L11.5688 20.2708L11.8244 20.2329Z" fill="#43CE8F"/>
<path d="M12.028 20.1978L11.9058 20.2188L12.028 20.1978Z" fill="#43CE8F"/>
<path d="M11.3412 20.2993C11.2419 20.3106 11.1422 20.3204 11.042 20.3288C11.1422 20.3204 11.2419 20.3106 11.3412 20.2993Z" fill="#43CE8F"/>
<path d="M11.5379 20.2754L11.3975 20.2936L11.5379 20.2754Z" fill="#43CE8F"/>
<path d="M12.3047 20.1431L12.1965 20.1655L12.3047 20.1431Z" fill="#43CE8F"/>
<path d="M12.9928 19.9722L12.9058 19.996L12.9928 19.9722Z" fill="#43CE8F"/>
<path d="M12.785 20.0298L12.6909 20.0537L12.785 20.0298Z" fill="#43CE8F"/>
<path d="M12.5128 20.0972L12.4131 20.1196L12.5128 20.0972Z" fill="#43CE8F"/>
<path d="M11.0394 20.3291L10.8779 20.3417L11.0394 20.3291Z" fill="#43CE8F"/>
<path d="M20.3652 10.1826C20.3652 8.16866 19.768 6.19997 18.6491 4.52545C17.5302 2.85093 15.9399 1.5458 14.0793 0.775108C12.2187 0.00441192 10.1713 -0.197237 8.19606 0.19566C6.22084 0.588557 4.40647 1.55835 2.98241 2.98241C1.55835 4.40647 0.588557 6.22084 0.19566 8.19606C-0.197237 10.1713 0.00441192 12.2187 0.775108 14.0793C1.5458 15.9399 2.85093 17.5302 4.52545 18.6491C6.19997 19.768 8.16866 20.3652 10.1826 20.3652H10.361V12.4368H8.17416V9.88624H10.3624V8.00562C10.3184 7.56161 10.3721 7.11335 10.5195 6.69224C10.667 6.27112 10.9047 5.88732 11.216 5.5677C11.5273 5.24808 11.9047 5.00037 12.3218 4.8419C12.7389 4.68343 13.1856 4.61803 13.6306 4.65029C14.2874 4.64765 14.9438 4.68093 15.5969 4.75V7.02248H14.2584C13.2023 7.02248 12.9944 7.52388 12.9944 8.26124V9.88624H15.5225L15.1938 12.4354H12.993V19.9719C15.1175 19.3609 16.9856 18.0755 18.3155 16.3096C19.6453 14.5437 20.3647 12.3932 20.3652 10.1826Z" fill="#43CE8F"/>
<path d="M10.8555 20.3428C10.7497 20.3493 10.6434 20.3545 10.5366 20.3582C10.6387 20.3545 10.745 20.3493 10.8555 20.3428Z" fill="#43CE8F"/>
</svg>
