<svg width="20" height="20" viewBox="0 0 20 20" fill="none" xmlns="http://www.w3.org/2000/svg">
<path d="M19.9442 5.87659C19.9283 5.04746 19.7714 4.22708 19.4801 3.45061C19.2224 2.78673 18.829 2.18389 18.3251 1.68056C17.8213 1.17724 17.2181 0.78449 16.5539 0.527386C15.7773 0.236501 14.957 0.0795716 14.1279 0.0632864C13.0566 0.0120545 12.7175 0 10.0023 0C7.28697 0 6.94643 0.0120545 5.88111 0.0587659C5.05198 0.0747301 4.23161 0.23167 3.45513 0.522866C2.7865 0.773676 2.18108 1.1682 1.68161 1.6786C1.17435 2.17857 0.781579 2.78263 0.5304 3.44911C0.238347 4.22598 0.0803953 5.04682 0.0632864 5.87659C0.0120545 6.94643 0 7.28697 0 10.0023C0 12.7175 0.0120545 13.0566 0.0587659 14.1234C0.0770827 14.953 0.236575 15.7734 0.5304 16.5494C0.787837 17.2138 1.18105 17.8173 1.68491 18.3211C2.18877 18.825 2.7922 19.2182 3.45664 19.4756C4.23321 19.7665 5.05352 19.9234 5.88262 19.9397C6.94945 19.9864 7.28848 19.9985 10.0038 19.9985C12.7191 19.9985 13.0581 19.9864 14.1249 19.9397C14.9541 19.9238 15.7744 19.7669 16.5509 19.4756C17.2153 19.2182 17.8188 18.825 18.3226 18.3211C18.8265 17.8173 19.2197 17.2138 19.4771 16.5494C19.7679 15.7728 19.9248 14.9525 19.9412 14.1234C19.9879 13.0566 20 12.7175 20 10.0023C20 7.28697 20 6.94794 19.9488 5.88111L19.9442 5.87659ZM18.1361 14.042C18.1298 14.6761 18.0135 15.3042 17.7925 15.8984C17.6268 16.3295 17.3729 16.7212 17.047 17.0484C16.721 17.3756 16.3304 17.6311 15.8999 17.7985C15.3056 18.0192 14.6775 18.1354 14.0435 18.1421C12.9888 18.1888 12.6723 18.2009 10.0038 18.2009C7.33519 18.2009 7.01575 18.1888 5.96399 18.1421C5.32997 18.1359 4.70185 18.0196 4.10759 17.7985C3.67298 17.6371 3.28048 17.3796 2.95939 17.0451C2.6258 16.7234 2.36838 16.331 2.20598 15.8969C1.98535 15.3026 1.86912 14.6745 1.86243 14.0405C1.81572 12.9858 1.80366 12.6693 1.80366 10.0008C1.80366 7.33218 1.81572 7.01273 1.86243 5.96097C1.87308 5.32938 1.99288 4.70438 2.21653 4.11361C2.37677 3.67841 2.63449 3.28566 2.96994 2.96542C3.29162 2.6317 3.68395 2.37427 4.11813 2.21201C4.71156 1.99452 5.33801 1.88085 5.97001 1.87599C7.02479 1.82928 7.34122 1.81722 10.0098 1.81722C12.6784 1.81722 12.9978 1.82928 14.0496 1.87599C14.6816 1.88298 15.3076 1.99921 15.8999 2.21954C16.3346 2.38092 16.7271 2.63848 17.0481 2.97295C17.3817 3.29473 17.6392 3.68703 17.8016 4.12115C18.0221 4.71554 18.1384 5.34358 18.1451 5.97755C18.1918 7.03232 18.2039 7.34875 18.2039 10.0173C18.2039 12.6859 18.1918 12.9978 18.1451 14.0526L18.1361 14.042Z" fill="#43CE8F"/>
<path d="M10.0008 4.86401C8.98481 4.86401 7.99167 5.16527 7.14693 5.72971C6.3022 6.29414 5.64382 7.09639 5.25503 8.03501C4.86624 8.97363 4.76451 10.0065 4.96272 11.0029C5.16092 11.9993 5.65014 12.9146 6.36853 13.633C7.08692 14.3514 8.0022 14.8406 8.99863 15.0388C9.99506 15.237 11.0279 15.1353 11.9665 14.7465C12.9051 14.3577 13.7074 13.6993 14.2718 12.8546C14.8362 12.0098 15.1375 11.0167 15.1375 10.0008C15.1371 8.63853 14.5958 7.33221 13.6325 6.36897C12.6693 5.40573 11.363 4.86441 10.0008 4.86401ZM10.0008 13.3338C9.34154 13.3338 8.69712 13.1384 8.149 12.7721C7.60088 12.4059 7.17366 11.8853 6.92139 11.2763C6.66912 10.6672 6.60311 9.99706 6.73172 9.35051C6.86032 8.70395 7.17777 8.11005 7.64391 7.64391C8.11005 7.17777 8.70395 6.86033 9.35051 6.73172C9.99706 6.60311 10.6672 6.66912 11.2763 6.92139C11.8853 7.17367 12.4059 7.60087 12.7721 8.14899C13.1383 8.69712 13.3339 9.34153 13.3339 10.0008C13.3339 10.8847 12.9827 11.7325 12.3576 12.3576C11.7325 12.9827 10.8847 13.3338 10.0008 13.3338Z" fill="#43CE8F"/>
<path d="M16.5418 4.66347C16.5418 4.90188 16.4711 5.13495 16.3386 5.33318C16.2061 5.53142 16.0179 5.68593 15.7976 5.77716C15.5774 5.8684 15.335 5.89227 15.1012 5.84576C14.8673 5.79925 14.6525 5.68443 14.4839 5.51585C14.3153 5.34726 14.2005 5.13248 14.154 4.89864C14.1075 4.66481 14.1314 4.42243 14.2226 4.20216C14.3139 3.98189 14.4684 3.79362 14.6666 3.66117C14.8648 3.52871 15.0979 3.45801 15.3363 3.45801C15.656 3.45801 15.9626 3.58501 16.1887 3.81108C16.4148 4.03714 16.5418 4.34376 16.5418 4.66347Z" fill="#43CE8F"/>
</svg>
