<svg width="70" height="67" viewBox="0 0 70 67" fill="none" xmlns="http://www.w3.org/2000/svg">
<path d="M64.6516 6.29109C62.8906 4.30068 60.7245 2.70968 58.2984 1.62472C55.8723 0.539755 53.2424 -0.0140993 50.5848 0.000272706C46.3303 0.000272706 41.7422 2.53269 38.389 4.3739C37.3167 5.03053 36.1845 5.58369 35.0075 6.02593C33.8342 5.58498 32.7059 5.03278 31.6379 4.37688C28.2936 2.52971 23.7144 0.000272706 19.4227 0.000272706C16.7651 -0.0140029 14.1352 0.539895 11.7091 1.62485C9.28309 2.7098 7.11695 4.30075 5.35586 6.29109C1.86968 10.2377 -0.0372684 15.3321 0.000551963 20.5977C0.000551963 28.262 2.75791 39.1559 7.37584 49.7548C9.10849 53.8723 11.2278 57.8162 13.7054 61.5335C16.1842 65.0952 18.3114 66.8247 20.2092 66.8247C21.0509 66.8247 22.5927 66.4687 23.4582 64.0793C24.2983 61.7584 25.0551 59.0949 25.8565 56.269C27.9793 48.791 30.6234 39.4836 34.8719 39.4836H35.14C37.0304 39.4836 38.7152 41.0999 40.3136 44.4263C41.9514 48.2833 43.2668 52.2693 44.2463 56.3435C45.0135 59.147 45.736 61.7957 46.5508 64.0748C47.3984 66.4479 48.9223 66.8039 49.7565 66.8039C51.6454 66.8039 53.7697 65.0461 56.2544 61.4307C58.7286 57.6693 60.8499 53.6875 62.5914 49.5358C67.2287 38.8579 69.9995 28.0386 69.9995 20.5963C70.036 15.3326 68.1291 10.2405 64.6442 6.29556L64.6516 6.29109ZM49.265 11.7939C46.4186 11.6284 43.5934 11.2031 40.8246 10.5232C39.4066 10.2312 38.0655 9.6456 36.8874 8.80414C37.7617 8.04119 38.7281 7.39062 39.7639 6.86759C42.8431 5.17236 47.0632 2.84552 50.5788 2.84552C60.9468 2.84552 67.1438 11.8669 67.1438 20.5903C67.1438 27.5559 64.3939 38.2099 59.9666 48.3932C58.2928 52.3749 56.2605 56.1962 53.8948 59.8099C51.6469 63.0797 50.193 64.0301 49.7536 63.9437C49.4839 63.8901 49.4556 63.6994 49.2396 63.1095C48.462 60.9302 47.75 58.3307 47.0052 55.5808C45.9851 51.343 44.6103 47.1986 42.8952 43.1913C40.7829 38.773 38.246 36.6264 35.149 36.6264H34.8808C31.8911 36.6264 29.4153 38.7566 27.3089 43.1392C25.5833 47.1363 24.1815 51.2655 23.117 55.487C22.3305 58.2592 21.5872 60.878 20.7813 63.1051C20.6025 63.5967 20.5489 63.9184 20.2197 63.9676C19.9619 64.0063 18.8611 63.9214 16.062 59.9008C13.6935 56.3363 11.6628 52.5585 9.99614 48.6167C5.59421 38.5168 2.8592 27.7809 2.8592 20.5963C2.8592 11.8743 9.05468 2.85147 19.4242 2.85147C22.8169 3.08504 26.0865 4.21605 28.8984 6.12872C29.3736 6.42665 30.0424 6.94356 30.686 7.43961C30.9437 7.63774 31.1984 7.83288 31.4308 8.01015C32.3886 8.73748 33.3863 9.41085 34.419 10.0271C35.0075 10.3891 35.6191 10.7121 36.2498 10.9939C38.8359 12.0915 41.6172 12.655 44.4266 12.6504C46.0561 12.6695 47.6823 12.4955 49.2709 12.132C49.2709 12.132 49.7044 12.0173 49.691 11.9041C49.6776 11.7909 49.265 11.7939 49.265 11.7939Z" fill="white"/>
</svg>
