<svg width="47" height="45" viewBox="0 0 47 45" fill="none" xmlns="http://www.w3.org/2000/svg">
<path d="M7.40364 8.58366C9.7098 8.73356 12.0215 8.3923 14.186 7.58243C16.3505 6.77256 18.3185 5.51254 19.9598 3.88563C19.9809 3.86456 16.9219 2.13282 16.6213 1.99799C15.393 1.44442 14.1142 1.01076 12.8025 0.703046C10.2532 -0.0449504 7.53995 -0.0249212 5.00195 0.76063C1.32498 2.23114 0.128354 6.1258 0.00335439 9.76906C-0.0471125 14.2311 0.472062 18.6814 1.5483 23.012C3.21824 30.4432 5.80813 38.1075 11.5244 43.1342C13.0286 44.4587 15.2323 45.5977 16.9542 44.5584C17.6644 44.0665 18.2042 43.3661 18.4991 42.5542C19.7253 39.7901 19.7534 36.4727 21.6354 34.1075C21.8107 33.834 22.0455 33.6036 22.3222 33.4333C22.5989 33.2631 22.9105 33.1575 23.2337 33.1244C24.2885 33.1244 24.8812 34.3056 25.2323 35.2985L27.4795 41.6721C27.7239 42.615 28.2138 43.4761 28.8994 44.1679C29.5819 44.7045 30.4456 44.9562 31.3095 44.8702C33.4556 44.7157 35.1522 43.0289 36.4809 41.3379C42.8489 33.2241 45.53 22.7213 46.068 12.4362C46.2359 10.4974 46.1372 8.54475 45.7744 6.63282C45.4003 4.71098 44.3895 2.9713 42.905 1.69462C41.1227 0.419329 38.9391 -0.167859 36.7576 0.0415295C33.2668 0.416567 29.906 1.57558 26.9261 3.43198C23.9541 5.28397 20.847 6.90981 17.6312 8.29574C14.3802 9.67755 10.7272 9.78039 7.40364 8.58366Z" fill="white"/>
<path d="M13.7436 28.3828C14.7774 27.2297 15.2886 20.8322 12.7099 18.3968C10.1313 15.9614 8.81528 19.4881 8.81528 19.4881C8.76958 18.9301 8.91136 18.3727 9.21817 17.9044C9.52498 17.436 9.97927 17.0834 10.5091 16.9024C12.422 16.2002 14.7802 17.8701 15.1636 20.7971C15.3003 21.9158 15.3135 23.0462 15.2029 24.1679C15.1155 25.1327 14.9602 26.0901 14.738 27.033C14.672 27.4235 14.5199 27.7943 14.2928 28.1187C14.2043 28.217 13.9024 28.5429 13.7436 28.3828Z" fill="#43CE8F"/>
<path d="M13.8516 16.7339C13.8768 16.7339 13.9555 16.8477 13.9681 16.8659C14.0763 16.9923 14.1774 17.1244 14.2757 17.2592C14.6118 17.7209 14.9021 18.2144 15.1423 18.7325C15.773 20.1813 16.0706 21.7531 16.0131 23.3322C16.0212 24.9384 15.7356 26.5324 15.1704 28.0359C15.0989 28.1804 15.0375 28.3296 14.9864 28.4825C14.9864 28.5134 14.9738 28.5555 14.9864 28.5752C14.9997 28.5833 15.015 28.5875 15.0306 28.5875C15.0462 28.5875 15.0615 28.5833 15.0749 28.5752C15.1698 28.522 15.2567 28.4558 15.3333 28.3786C15.5398 28.1974 15.7336 27.998 15.9274 27.7999C17.1044 26.5794 18.2055 25.2718 19.3094 23.9881C20.2857 23.0007 21.0924 21.8589 21.6971 20.6089C21.9567 20.0396 22.1376 19.4377 22.235 18.8196C22.3414 18.2003 22.2832 17.5639 22.0664 16.9741L22.0117 16.8575C22.0117 16.8294 21.9555 16.7718 21.9555 16.7409L21.7181 16.3294C21.6929 16.2831 21.3305 16.3968 21.2968 16.4067C20.9213 16.5407 20.5716 16.7384 20.2631 16.9909C20.294 16.9671 20.5763 17.2283 20.6072 17.2494C20.7166 17.3566 20.8154 17.4742 20.9021 17.6005C21.0776 17.8546 21.2008 18.141 21.2645 18.4432C21.3498 18.8602 21.3498 19.2902 21.2645 19.7072C21.132 20.3189 20.9045 20.9061 20.5903 21.4474C20.1665 22.1693 19.7028 22.867 19.2013 23.5373C18.787 24.1216 18.3656 24.703 17.9091 25.2522C17.6198 25.5963 17.3066 25.9193 16.9962 26.2451C16.558 26.6899 16.1428 27.1482 15.7504 27.6201C15.7304 27.6489 15.7052 27.6737 15.676 27.6932C15.8907 26.9364 16.054 26.1659 16.1648 25.387C16.3437 24.0408 16.3847 22.6798 16.287 21.3252C16.0061 17.3842 14.7181 16.7353 14.7181 16.7353L13.8516 16.7339Z" fill="#43CE8F"/>
<path d="M30.5244 27.8789H30.5708C30.6964 27.8526 30.8245 27.8404 30.9528 27.8424C31.4201 27.8097 31.8749 27.6774 32.2867 27.4543C32.6986 27.2311 33.0579 26.9224 33.3404 26.5489C33.7352 25.9877 33.9753 25.3325 34.0367 24.6491C34.0981 23.9657 33.9786 23.2782 33.6902 22.6556C33.1681 21.443 32.3861 20.3599 31.3994 19.4829L30.5876 18.6191C30.1401 18.2287 29.7803 17.7478 29.5322 17.2081C29.284 16.6685 29.1531 16.0824 29.148 15.4885C29.2169 14.8629 29.4991 14.2801 29.9472 13.8382C30.4273 13.4411 31.0253 13.214 31.648 13.1921C32.1059 13.1536 32.5658 13.2354 32.9823 13.4295C33.5685 13.724 34.0536 14.1866 34.3755 14.7582C34.4208 14.836 34.4621 14.9162 34.4991 14.9983C34.738 14.5169 34.9118 14.0059 35.016 13.4787C35.016 13.0573 32.3741 12.1191 30.8025 12.5138C30.4096 12.6178 30.0412 12.7989 29.7189 13.0465C29.3965 13.2942 29.1266 13.6033 28.9247 13.9561C28.7228 14.3089 28.593 14.6983 28.5429 15.1017C28.4927 15.5051 28.5232 15.9144 28.6326 16.3059C28.891 17.5264 31.2183 19.8944 32.589 21.6008C33.023 22.1445 33.3391 22.7725 33.5174 23.4449C33.6348 23.951 33.6689 24.4728 33.6185 24.9899C33.5528 25.4944 33.3241 25.9637 32.9671 26.3263C32.6101 26.6888 32.1445 26.9248 31.641 26.9983C31.6902 26.9983 31.8222 26.7553 31.8475 26.7174C32.0165 26.4701 32.1676 26.211 32.2997 25.9421C32.4869 25.6078 32.6062 25.2398 32.6508 24.8592C32.6954 24.4786 32.6644 24.093 32.5595 23.7244C32.4054 23.3046 32.2007 22.9051 31.95 22.5348C31.3074 21.5195 30.592 20.5521 29.8095 19.6402C29.2473 19.1004 28.7349 18.5109 28.2786 17.8789C27.8458 16.9935 27.7674 15.9761 28.0595 15.0348C28.1398 14.6779 28.3105 14.3475 28.5553 14.0756C28.2879 14.064 28.0217 14.1176 27.7795 14.2316C27.5373 14.3456 27.3264 14.5166 27.1649 14.7301C26.839 15.1562 26.6579 15.6754 26.648 16.2118C26.6516 17.2825 27.0019 18.3232 27.6466 19.1781C28.2463 20.0545 28.9935 20.8199 29.648 21.6556C30.231 22.3543 30.668 23.1629 30.9331 24.0334C31.1629 24.9488 31.0459 25.9169 30.6045 26.7511C30.3714 27.2446 29.9969 27.6577 29.5286 27.9379C29.0035 28.1891 28.4249 28.3082 27.8432 28.2848C27.2158 28.3317 26.5898 28.1767 26.0567 27.8424C25.533 27.4996 25.0785 27.0612 24.7168 26.5503C24.4448 26.1204 24.2953 25.6244 24.2845 25.1158C24.2736 24.6071 24.4017 24.1052 24.655 23.6641C24.3966 23.4801 23.9261 24.0306 23.7843 24.1809C23.3969 24.493 23.1049 24.9076 22.9416 25.3775C22.9217 25.6793 22.9707 25.9816 23.0848 26.2617C23.1989 26.5417 23.3752 26.7922 23.6003 26.9941C24.2567 27.8113 25.1664 28.387 26.1859 28.6303C26.8172 28.7492 27.4601 28.7935 28.1017 28.7624C28.6912 28.7642 29.2731 28.6286 29.8011 28.3663C29.8756 28.3256 29.9514 28.2778 30.023 28.2258C30.1735 28.0878 30.3422 27.9711 30.5244 27.8789Z" fill="#43CE8F"/>
</svg>
