<svg width="61" height="57" viewBox="0 0 61 57" fill="none" xmlns="http://www.w3.org/2000/svg">
<path d="M9.77057 11.5964C12.8145 11.782 15.8658 11.3601 18.7228 10.3588C21.5798 9.35745 24.1775 7.7994 26.3441 5.78762C26.3709 5.76245 22.3346 3.61987 21.938 3.45403C20.3149 2.7694 18.625 2.23336 16.8918 1.85339C13.5283 0.9293 9.94887 0.954021 6.60032 1.92446C1.74696 3.74425 0.177637 8.55654 0.0037948 13.0653C-0.0578835 18.5843 0.632528 24.0882 2.0583 29.4434C4.24871 38.6326 7.6655 48.1106 15.2118 54.3311C17.1984 55.9688 20.111 57.3784 22.3789 56.0931C23.322 55.487 24.0401 54.6206 24.4334 53.6144C26.0517 50.1955 26.088 46.0939 28.574 43.168C28.8056 42.8303 29.1157 42.546 29.481 42.3363C29.8463 42.1265 30.2575 41.9968 30.6838 41.9568C32.0761 41.9568 32.8584 43.4183 33.3215 44.6458L36.2863 52.5335C36.6089 53.6993 37.2556 54.764 38.1606 55.6193C39.0623 56.2811 40.2023 56.5904 41.3419 56.4826C44.174 56.2901 46.4134 54.2052 48.1676 52.1145C56.5737 42.0797 60.1122 29.091 60.8233 16.3717C61.0401 13.9729 60.9045 11.5575 60.4203 9.19325C59.9248 6.81569 58.5886 4.66395 56.6274 3.08533C54.2772 1.50711 51.397 0.778698 48.5184 1.03456C43.9139 1.4992 39.4807 2.93214 35.5498 5.22644C31.6265 7.51671 27.5249 9.52726 23.2797 11.2411C18.9858 12.9523 14.1602 13.0793 9.77057 11.5964Z" fill="#43CE8F"/>
<path d="M18.1401 36.0845C19.5055 34.6586 20.1946 26.7472 16.7746 23.7354C13.3547 20.7237 11.6352 25.0844 11.6352 25.0844C11.5745 24.3941 11.7616 23.7045 12.1667 23.1251C12.5718 22.5457 13.1718 22.1096 13.8715 21.886C16.4001 21.0257 19.5103 23.0825 20.0144 26.7013C20.195 28.0872 20.212 29.4875 20.065 30.8769C19.9492 32.0701 19.7438 33.2541 19.4502 34.4202C19.3633 34.903 19.1631 35.3617 18.8639 35.7632C18.747 35.8802 18.3471 36.2844 18.1401 36.0845Z" fill="white"/>
<path d="M18.2825 21.6785C18.3172 21.6785 18.4184 21.8265 18.4405 21.8413C18.5843 21.9983 18.7171 22.1612 18.8467 22.327C19.29 22.8983 19.6727 23.5088 19.9893 24.1498C20.8223 25.9415 21.2154 27.8856 21.1398 29.8386C21.1523 31.8243 20.7774 33.7954 20.0335 35.6548C19.9395 35.834 19.8587 36.0191 19.7917 36.2086C19.7917 36.2471 19.7744 36.2975 19.7917 36.3241C19.8092 36.3339 19.8291 36.3391 19.8494 36.3391C19.8697 36.3391 19.8897 36.3339 19.9071 36.3241C20.0324 36.2584 20.1473 36.1767 20.2485 36.0813C20.5219 35.8577 20.7779 35.6119 21.0387 35.3646C22.5922 33.8558 24.0414 32.2433 25.5033 30.6515C26.7953 29.4307 27.8632 28.0184 28.664 26.4715C29.0065 25.7676 29.2452 25.0234 29.3736 24.2593C29.5144 23.4932 29.4381 22.7059 29.1524 21.9761L29.0812 21.828C29.0812 21.7925 29.0054 21.7229 29.0054 21.6799L28.6893 21.1721C28.6545 21.1143 28.1773 21.255 28.133 21.2683C27.6313 21.4352 27.1644 21.6827 26.7533 21.9998C26.7944 21.9716 27.1658 22.2959 27.2069 22.3196C27.3512 22.4526 27.4815 22.5984 27.5957 22.7549C27.8251 23.0678 27.9862 23.42 28.0698 23.7914C28.1824 24.3073 28.1824 24.8392 28.0698 25.355C27.8944 26.1114 27.5936 26.8374 27.1785 27.5065C26.6191 28.399 26.0071 29.2617 25.3452 30.0903C24.7984 30.8129 24.2389 31.5326 23.6384 32.2107C23.2559 32.6357 22.8482 33.0355 22.4341 33.4382C21.8557 33.988 21.3073 34.5552 20.789 35.1395C20.762 35.1747 20.7282 35.2048 20.6894 35.2284C20.9727 34.2925 21.1881 33.3397 21.3342 32.3766C21.5694 30.7113 21.6224 29.0279 21.4922 27.3525C21.1272 22.4795 19.4203 21.677 19.4203 21.677L18.2825 21.6785Z" fill="white"/>
<path d="M40.2893 35.4607H40.3509C40.5172 35.4283 40.6868 35.4134 40.8566 35.4162C41.4725 35.3752 42.0718 35.2112 42.6145 34.9354C43.1571 34.6596 43.6306 34.2783 44.0032 33.8171C44.5243 33.123 44.8412 32.3126 44.9222 31.4674C45.0033 30.6221 44.8454 29.7718 44.4647 29.0018C44.215 28.608 44.3066 27.9979 41.4414 25.078L40.3699 24.0104C39.7797 23.5272 39.3055 22.9323 38.9786 22.2648C38.6517 21.5974 38.4795 20.8726 38.4734 20.1383C38.5642 19.3649 38.9364 18.6444 39.5275 18.0979C40.1614 17.6065 40.951 17.3254 41.7733 17.2983C42.3776 17.2515 42.9846 17.3536 43.5338 17.5945C44.3047 17.9571 44.9433 18.5261 45.3686 19.2292C45.4266 19.3253 45.4794 19.4242 45.5267 19.5253C45.8423 18.9296 46.0719 18.2973 46.2094 17.6448C46.2094 17.1177 42.7215 15.9627 40.6528 16.4514C40.1348 16.5803 39.6493 16.8043 39.2244 17.1102C38.7995 17.4162 38.4435 17.7981 38.1772 18.2338C37.9109 18.6695 37.7394 19.1504 37.6728 19.6486C37.6062 20.1469 37.6457 20.6525 37.7891 21.1363C38.1305 22.6452 41.2027 25.5784 43.0044 27.6855C43.5769 28.3578 43.994 29.1343 44.2292 29.9658C44.3854 30.5963 44.4302 31.2466 44.3619 31.8907C44.2753 32.5148 43.9733 33.0954 43.502 33.5439C43.0307 33.9924 42.4159 34.2844 41.7511 34.3753C41.8159 34.3753 41.9898 34.0792 42.0245 34.0303C42.2478 33.7242 42.4475 33.4036 42.6219 33.0708C42.8708 32.6553 43.0292 32.1976 43.0878 31.7243C43.1464 31.2511 43.1041 30.7716 42.9633 30.3137C42.7593 29.7948 42.4887 29.301 42.1573 28.8434C41.3065 27.5904 40.36 26.3968 39.3252 25.2719C38.5834 24.6043 37.9074 23.8753 37.3055 23.0938C36.7333 21.9987 36.6293 20.7402 37.0147 19.5757C37.1213 19.1347 37.3472 18.7267 37.6706 18.3911C37.3175 18.3766 36.966 18.4426 36.6461 18.5834C36.3262 18.7242 36.0476 18.9357 35.8342 19.1996C35.4039 19.7263 35.1647 20.3681 35.1514 21.0312C35.1563 22.3551 35.6188 23.6418 36.4695 24.6989C37.2597 25.7828 38.2474 26.7289 39.1103 27.7625C39.8839 28.6262 40.4643 29.6267 40.8171 30.7046C41.1207 31.8367 40.9665 33.034 40.3841 34.0658C40.0752 34.6752 39.5802 35.1849 38.9618 35.5302C38.2696 35.8412 37.5068 35.9891 36.7397 35.9611C35.9116 36.0199 35.0852 35.8284 34.3818 35.4148C33.6905 34.9904 33.0905 34.4479 32.6134 33.8156C32.2544 33.2841 32.057 32.6709 32.0425 32.0421C32.028 31.4132 32.197 30.7926 32.5312 30.2471C32.1898 30.0205 31.5687 30.7017 31.3806 30.8868C30.8714 31.2737 30.4881 31.7867 30.2744 32.3675C30.2484 32.7407 30.3133 33.1146 30.4641 33.4609C30.615 33.8072 30.8479 34.1168 31.1452 34.3664C32.0117 35.3774 33.2127 36.0895 34.5588 36.3905C35.392 36.5374 36.2406 36.592 37.0874 36.5534C37.8653 36.5563 38.6333 36.389 39.33 36.0648C39.4296 36.013 39.5275 35.9567 39.6239 35.896C39.8232 35.7228 40.0471 35.5763 40.2893 35.4607Z" fill="white"/>
</svg>
