<svg width="70" height="67" viewBox="0 0 70 67" fill="none" xmlns="http://www.w3.org/2000/svg">
<path d="M64.6488 6.24678C62.8877 4.27188 60.7213 2.69328 58.2949 1.61677C55.8685 0.540262 53.2383 -0.0092702 50.5803 0.00500541C46.3257 0.00500541 41.7378 2.51155 38.3839 4.34342C37.3113 4.99465 36.1788 5.5432 35.0015 5.98168C33.8284 5.54344 32.7003 4.99485 31.6326 4.34342C28.2878 2.51155 23.7089 0.000537033 19.4242 0.000537033C16.7666 -0.0142975 14.1365 0.534538 11.7102 1.61027C9.28383 2.68599 7.11727 4.26376 5.35568 6.23785C1.86786 10.1552 -0.0391095 15.2121 0.000608147 20.4386C0.000608147 28.0431 2.75846 38.8542 7.37641 49.3673C9.10753 53.4494 11.2248 57.3595 13.6998 61.0452C16.1784 64.5779 18.3072 66.295 20.2049 66.295C21.0471 66.295 22.5889 65.9421 23.4536 63.5711C24.2944 61.2686 25.051 58.625 25.8557 55.8266C27.9785 48.4082 30.6193 39.1744 34.8709 39.1744H35.1306C37.0207 39.1744 38.7127 40.7784 40.304 44.0772C41.942 47.9035 43.2576 51.8578 44.2374 55.8995C45.0046 58.6816 45.7282 61.3088 46.5419 63.5696C47.3901 65.9242 48.9139 66.2772 49.7486 66.2772C51.6372 66.2772 53.763 64.5332 56.2477 60.9469C58.7223 57.2151 60.8442 53.2645 62.5861 49.1454C67.228 38.5503 69.9994 27.8182 69.9994 20.4356C70.0385 15.2102 68.1316 10.1543 64.6443 6.23785L64.6488 6.24678ZM49.2682 11.7052C46.4214 11.5409 43.5957 11.1186 40.8265 10.4437C39.4083 10.1541 38.0669 9.57326 36.8886 8.73843C37.7632 7.9831 38.7295 7.33919 39.7651 6.82166C42.8442 5.13872 47.0613 2.83473 50.5743 2.83473C60.9437 2.83473 67.1395 11.7856 67.1395 20.4386C67.1395 27.3491 64.3891 37.9189 59.9618 48.0225C58.2873 51.9701 56.2547 55.7586 53.8891 59.3414C51.6372 62.5851 50.187 63.5279 49.7471 63.443C49.4769 63.3894 49.4468 63.2002 49.2322 62.6149C48.4545 60.4524 47.7429 57.8744 46.9907 55.1459C45.9706 50.9411 44.5956 46.829 42.8802 42.853C40.7664 38.4699 38.2263 36.3387 35.1276 36.3387H34.8589C31.8698 36.3387 29.3927 38.452 27.2864 42.7994C25.5609 46.7647 24.1592 50.8612 23.0948 55.0491C22.3082 57.7999 21.565 60.3973 20.7588 62.6075C20.5802 63.096 20.5261 63.4132 20.1974 63.4623C19.9391 63.5011 18.8462 63.4162 16.0388 59.4277C13.6786 55.8918 11.6556 52.1453 9.99615 48.2369C5.59289 38.2182 2.85304 27.5665 2.85304 20.4386C2.85304 11.7856 9.04884 2.83473 19.4197 2.83473C22.8143 3.06654 26.0858 4.18964 28.8988 6.08891C29.3732 6.38678 30.0428 6.89613 30.6883 7.3891C30.9465 7.58569 31.2003 7.7793 31.439 7.95504C32.3965 8.67833 33.3938 9.34808 34.4265 9.96117C35.0152 10.3203 35.627 10.6407 36.2581 10.9203C38.8448 12.0075 41.6263 12.5647 44.4356 12.5586C46.0652 12.5781 47.6914 12.4061 49.2802 12.0462C49.2802 12.0462 49.7141 11.933 49.7006 11.8213C49.6871 11.7096 49.2682 11.7052 49.2682 11.7052Z" fill="#fff"/>
<path d="M46.5404 19.5889H24.0212V30.0142H46.5404V19.5889Z" stroke="#fff" stroke-width="2"/>
<path d="M1.37427 25.1095H23.341" stroke="#fff" stroke-width="2"/>
<path d="M47.291 24.8058H68.309" stroke="#fff" stroke-width="2"/>
</svg>
