<svg width="70" height="67" viewBox="0 0 70 67" fill="none" xmlns="http://www.w3.org/2000/svg">
<path d="M64.6516 6.24127C62.8906 4.2667 60.7245 2.68836 58.2984 1.61203C55.8723 0.535704 53.2424 -0.013743 50.5848 0.000514676C46.3303 0.000514676 41.7422 2.51278 38.3889 4.33934C37.3167 4.99074 36.1844 5.5395 35.0074 5.97822C33.8342 5.54078 32.7058 4.99297 31.6378 4.3423C28.2935 2.50982 23.7143 0.000514676 19.4226 0.000514676C16.7663 -0.0125929 14.1378 0.537407 11.7131 1.61369C9.28842 2.68998 7.12348 4.26771 5.36322 6.24127C1.87571 10.1538 -0.0338429 15.2054 0.000454099 20.4282C0.000454099 28.0374 2.75781 38.8445 7.37575 49.3591C9.10841 53.4439 11.2278 57.3564 13.7053 61.0441C16.1841 64.5775 18.3113 66.2932 20.2092 66.2932C21.0508 66.2932 22.5926 65.94 23.4581 63.5696C24.2983 61.2672 25.055 58.6249 25.8564 55.8215C27.9792 48.4029 30.6234 39.1696 34.8719 39.1696H35.14C37.0304 39.1696 38.7152 40.7731 40.3136 44.073C41.9513 47.8993 43.2667 51.8536 44.2463 55.8954C45.0135 58.6766 45.7359 61.3042 46.5508 63.5652C47.3984 65.9193 48.9223 66.2725 49.7565 66.2725C51.6454 66.2725 53.7697 64.5287 56.2544 60.9421C58.7286 57.2107 60.8499 53.2605 62.5914 49.1418C67.2287 38.549 69.9995 27.8157 69.9995 20.4326C70.036 15.2108 68.1291 10.1593 64.6442 6.2457L64.6516 6.24127ZM49.2649 11.7003C46.4186 11.5361 43.5934 11.1142 40.8245 10.4397C39.4066 10.15 38.0654 9.56909 36.8874 8.73432C37.7617 7.97745 38.7281 7.33205 39.7639 6.81318C42.843 5.13144 47.0632 2.82312 50.5788 2.82312C60.9468 2.82312 67.1438 11.7727 67.1438 20.4267C67.1438 27.3369 64.3939 37.9061 59.9666 48.0084C58.2927 51.9584 56.2604 55.7492 53.8948 59.3342C51.6469 62.578 50.193 63.5238 49.755 63.4351C49.4854 63.3819 49.4571 63.1928 49.2411 62.6076C48.4635 60.4456 47.7514 57.8668 47.0066 55.1388C45.9885 50.9349 44.6157 46.8234 42.9026 42.8479C40.7903 38.4647 38.2534 36.3352 35.1564 36.3352H34.8882C31.8985 36.3352 29.4227 38.4485 27.3163 42.7962C25.5907 46.7614 24.1889 50.8578 23.1244 55.0457C22.3379 57.7959 21.5945 60.3938 20.7886 62.6031C20.6099 63.0908 20.5562 63.41 20.227 63.4588C19.9693 63.4972 18.8685 63.413 16.0694 59.4244C13.6983 55.8885 11.6651 52.1408 9.99606 48.23C5.59412 38.2105 2.85911 27.56 2.85911 20.4326C2.85911 11.7801 9.05459 2.82903 19.4241 2.82903C22.8168 3.06073 26.0865 4.18275 28.8983 6.08019C29.3735 6.37575 30.0424 6.88855 30.6859 7.38066L31.4307 7.94665C32.3886 8.66819 33.3862 9.33621 34.419 9.9476C35.0074 10.3067 35.619 10.6271 36.2498 10.9067C38.8359 11.9956 41.6172 12.5545 44.4265 12.55C46.0561 12.5689 47.6822 12.3963 49.2709 12.0357C49.2709 12.0357 49.7044 11.9219 49.691 11.8096C49.6776 11.6973 49.2649 11.7003 49.2649 11.7003Z" fill="#fff"/>
<path d="M6.72761 25.955C8.45264 38.7705 18.0491 60.6714 19.1231 59.8556C20.1972 59.0399 25.6982 24.9058 39.8201 35.1572C53.9421 45.4087 44.4562 79.8931 59.5464 42.7295C74.6367 5.56589 48.7673 19.5458 31.3041 23.3911C13.8408 27.2363 4.99961 13.1396 6.72761 25.955Z" fill="#fff"/>
</svg>
