<svg width="72" height="60" viewBox="0 0 72 60" fill="none" xmlns="http://www.w3.org/2000/svg">
<path d="M62.3625 16.2514C61.7333 14.6476 60.7491 13.2066 59.4825 12.0349C58.2159 10.8631 56.6991 9.9904 55.0441 9.48113C52.4374 8.68816 49.1048 9.49916 46.6696 10.0928C45.8842 10.3251 45.0779 10.4794 44.2627 10.5533C43.631 10.0399 43.0531 9.46458 42.5377 8.83587C40.8703 6.99419 38.5806 4.47025 35.9617 3.67359C34.3022 3.17369 32.5488 3.05144 30.831 3.31585C29.1132 3.58026 27.475 4.22459 26.0373 5.20122C23.0404 7.21545 20.8358 10.199 19.8013 13.6405C18.2197 18.692 17.6583 26.394 18.2997 34.242C18.5071 37.2628 18.9898 40.2572 19.7419 43.1883C20.5257 45.9989 21.4712 47.5361 22.6342 47.8899C23.1507 48.047 24.166 48.0988 25.193 46.6806C26.1875 45.3067 27.2006 43.6908 28.2749 41.9768C31.1193 37.4407 34.6574 31.7944 37.2641 32.5874L37.4282 32.6373C38.5863 32.9896 39.2892 34.3709 39.577 36.861C39.7825 39.7223 39.7638 42.5965 39.5208 45.4575C39.4123 47.4493 39.3088 49.3314 39.3366 50.9857C39.3653 52.7092 40.2316 53.2285 40.738 53.3839C41.8949 53.7358 43.5593 52.9726 45.8283 51.0523C48.1354 49.0209 50.2586 46.7919 52.173 44.3913C57.2268 38.2188 61.1535 31.5948 62.6904 26.6861C63.8036 23.2685 63.6882 19.5792 62.364 16.2506L62.3625 16.2514ZM51.8045 17.0138C50.0913 16.3726 48.4468 15.5648 46.8949 14.602C46.0791 14.1374 45.3768 13.4999 44.8376 12.7345C45.5237 12.3978 46.25 12.1498 46.9986 11.9964C49.2347 11.4522 52.2979 10.7064 54.4538 11.3622C60.8059 13.2945 62.7397 20.3986 60.9384 26.1519C59.4988 30.7496 55.6173 37.2548 50.8009 43.1496C48.9644 45.4521 46.931 47.5927 44.7236 49.5474C42.6716 51.2847 41.5846 51.6404 41.3326 51.5015C41.1784 51.4161 41.1971 51.284 41.1903 50.8552C41.1639 49.2729 41.2626 47.4318 41.3702 45.4768C41.6203 42.5023 41.6337 39.5141 41.4104 36.5401C41.0284 33.2329 39.9177 31.3433 38.017 30.7651L37.8529 30.7152C36.0216 30.1581 34.0639 31.101 31.8695 33.5993C29.9807 35.9229 28.2701 38.3838 26.7522 40.961C25.6937 42.6414 24.7022 44.2308 23.7477 45.5492C23.5368 45.8401 23.4365 46.0415 23.2258 46.0132C23.0598 45.9906 22.4028 45.7297 21.5136 42.5545C20.7993 39.7448 20.339 36.876 20.138 33.9822C19.5237 26.5069 20.0654 18.9102 21.5489 14.1721C23.3498 8.42012 29.0093 3.62458 35.3614 5.55691C37.4119 6.35806 39.1896 7.72019 40.4893 9.48624C40.7177 9.77302 41.0211 10.2364 41.3126 10.6828C41.4297 10.8616 41.5451 11.0371 41.6541 11.1989C42.0889 11.8547 42.5613 12.4851 43.0688 13.0869C43.3532 13.4338 43.6613 13.7609 43.9909 14.0658C45.3365 15.2633 46.9293 16.1547 48.6592 16.6785C49.6551 16.9951 50.6882 17.1838 51.7337 17.2401C51.7337 17.2401 52.0233 17.246 52.0383 17.1684C52.0533 17.0908 51.8033 17.0135 51.8033 17.0135L51.8045 17.0138Z" fill="#fff"/>
<path d="M1 59.0465V41.9826C1 41.9826 1.01522 36.5866 7.13086 36.841C13.2465 37.0954 13.674 43.3737 13.674 43.3737C14.0525 46.4153 15.3101 49.2833 17.2952 51.6316" stroke="#fff" stroke-width="2"/>
<path d="M70.9999 59.0468V41.983C71.0044 41.2528 70.8523 40.53 70.5535 39.8626C70.2548 39.1952 69.8162 38.5986 69.2671 38.1123C68.7176 37.6268 68.0702 37.2629 67.368 37.0447C66.6658 36.8265 65.9248 36.7589 65.1943 36.8465C59.404 37.0997 58.9983 43.3792 58.9983 43.3792C58.6479 46.3935 57.461 49.2522 55.5698 51.637" stroke="#fff" stroke-width="2"/>
</svg>
