<svg width="70" height="66" viewBox="0 0 70 66" fill="none" xmlns="http://www.w3.org/2000/svg">
<path d="M63.7322 6.1521C61.9962 4.20563 59.8609 2.64974 57.4693 1.58873C55.0778 0.527719 52.4852 -0.0139102 49.8654 0.000144616C45.6715 0.000144616 41.1486 2.47666 37.843 4.27724C36.786 4.91937 35.6698 5.46032 34.5096 5.8928C33.353 5.46158 32.2407 4.92157 31.1879 4.28015C27.8912 2.47375 23.3771 0.000144616 19.1464 0.000144616C16.5279 -0.0127765 13.9368 0.529397 11.5465 1.59037C9.15633 2.65134 7.02218 4.20663 5.28695 6.1521C1.84904 10.009 -0.0333616 14.9887 0.000447641 20.1371C0.000447641 27.6381 2.71859 38.2915 7.27086 48.6564C8.97888 52.6831 11.0681 56.5399 13.5104 60.1751C15.9539 63.6583 18.0509 65.3496 19.9218 65.3496C20.7515 65.3496 22.2713 65.0014 23.1245 62.6648C23.9527 60.3951 24.6987 57.7904 25.4888 55.0269C27.5813 47.7139 30.1879 38.612 34.376 38.612H34.6403C36.5038 38.612 38.1646 40.1926 39.7403 43.4455C41.3547 47.2174 42.6514 51.1155 43.6171 55.0997C44.3733 57.8414 45.0855 60.4315 45.8888 62.6604C46.7244 64.981 48.2266 65.3292 49.049 65.3292C50.911 65.3292 53.005 63.6102 55.4544 60.0746C57.8934 56.3963 59.9846 52.5023 61.7013 48.4423C66.2727 38.0001 69.004 27.4196 69.004 20.1415C69.04 14.994 67.1603 10.0144 63.7249 6.15648L63.7322 6.1521ZM48.5644 11.5334C45.7585 11.3716 42.9735 10.9557 40.244 10.2908C38.8462 10.0052 37.5241 9.43258 36.3628 8.60968C37.2247 7.86358 38.1773 7.22737 39.1984 6.71588C42.2338 5.05807 46.3939 2.78258 49.8595 2.78258C60.0801 2.78258 66.189 11.6048 66.189 20.1357C66.189 26.9476 63.4782 37.3664 59.1139 47.3249C57.4638 51.2187 55.4604 54.9557 53.1284 58.4897C50.9124 61.6873 49.4792 62.6196 49.0475 62.5322C48.7817 62.4798 48.7538 62.2933 48.5409 61.7164C47.7743 59.5852 47.0724 57.0431 46.3381 54.3539C45.3345 50.2098 43.9812 46.1568 42.2925 42.2379C40.2102 37.9171 37.7094 35.8179 34.6564 35.8179H34.3921C31.4449 35.8179 29.0043 37.9011 26.9279 42.1869C25.2268 46.0957 23.8449 50.1338 22.7956 54.2621C22.0202 56.9732 21.2874 59.5342 20.493 61.712C20.3168 62.1928 20.2639 62.5074 19.9394 62.5555C19.6853 62.5934 18.6001 62.5104 15.8409 58.5785C13.5035 55.0929 11.4992 51.3986 9.85391 47.5434C5.51457 37.6665 2.81845 27.1675 2.81845 20.1415C2.81845 11.6121 8.92583 2.78841 19.1479 2.78841C22.4923 3.01682 25.7155 4.12287 28.4874 5.99332C28.9558 6.28467 29.6152 6.79017 30.2495 7.27528L30.9838 7.83322C31.928 8.5445 32.9114 9.20301 33.9295 9.8057C34.5096 10.1597 35.1125 10.4755 35.7343 10.7511C38.2836 11.8245 41.0253 12.3755 43.7948 12.3711C45.4012 12.3897 47.0042 12.2195 48.5702 11.8641C48.5702 11.8641 48.9976 11.7519 48.9843 11.6412C48.9711 11.5305 48.5644 11.5334 48.5644 11.5334Z" fill="#43CE8F"/>
<path d="M57.7892 2.80054L56.9829 13.4524L60.3605 13.9026L58.7981 22.904L62.2255 23.7038L66.9891 34.073L66.8188 34.3265L68.6927 27.7346" stroke="#43CE8F"/>
<path d="M5.73169 31.3735L12.1208 38.4724L12.5467 41.3452L17.3178 44.2194L16.7216 52.2477L15.4442 58.5861" stroke="#43CE8F"/>
<path d="M27.1128 3.73645L16.3692 7.14234L15.8156 16.2616L7.17651 9.1235" stroke="#43CE8F"/>
<path d="M22.5309 14.9115C24.153 14.9115 25.4679 13.607 25.4679 11.9979C25.4679 10.3888 24.153 9.08435 22.5309 9.08435C20.9089 9.08435 19.594 10.3888 19.594 11.9979C19.594 13.607 20.9089 14.9115 22.5309 14.9115Z" fill="#43CE8F"/>
<path d="M68.3147 17.3221C67.3838 16.0044 65.5523 15.6848 64.224 16.6084C62.8958 17.5319 62.5736 19.3488 63.5046 20.6665C64.4355 21.9843 66.267 22.3038 67.5953 21.3803C68.9235 20.4567 69.2457 18.6398 68.3147 17.3221Z" fill="#43CE8F"/>
<path d="M52.5438 55.2235C53.7597 55.2235 57.6144 49.8334 57.6144 51.0353C57.6144 52.2371 54.0122 56.2928 52.7949 56.2928C51.5775 56.2928 51.2354 61.7338 51.2354 60.5276C51.2354 59.3214 51.3264 55.2235 52.5438 55.2235Z" fill="#43CE8F"/>
</svg>
