<svg width="76" height="65" viewBox="0 0 76 65" fill="none" xmlns="http://www.w3.org/2000/svg">
<path d="M62.4956 12.3044C60.967 10.5905 59.0869 9.22055 56.9811 8.28632C54.8753 7.3521 52.5926 6.87519 50.2858 6.88756C46.593 6.88756 42.6106 9.06815 39.7001 10.6536C38.7694 11.219 37.7866 11.6953 36.765 12.0761C35.7466 11.6964 34.7672 11.2209 33.8402 10.6561C30.9374 9.06558 26.9628 6.88756 23.2376 6.88756C20.932 6.87619 18.6505 7.35357 16.5459 8.28776C14.4413 9.22196 12.5622 10.5914 11.0343 12.3044C8.00723 15.7004 6.34978 20.0851 6.37954 24.6183C6.37954 31.2229 8.77288 40.6033 12.7812 49.7297C14.2851 53.2752 16.1246 56.6711 18.2751 59.872C20.4267 62.9389 22.2731 64.4281 23.9203 64.4281C24.6509 64.4281 25.9891 64.1215 26.7404 62.0641C27.4696 60.0656 28.1264 57.7722 28.8221 55.3389C30.6646 48.8998 32.9597 40.8855 36.6473 40.8855H36.88C38.5208 40.8855 39.9832 42.2772 41.3706 45.1415C42.7921 48.4626 43.9339 51.8949 44.7841 55.403C45.45 57.8171 46.0771 60.0977 46.7844 62.0602C47.5201 64.1036 48.8428 64.4101 49.5669 64.4101C51.2064 64.4101 53.0502 62.8966 55.207 59.7835C57.3545 56.5447 59.1958 53.116 60.7074 49.5411C64.7325 40.3467 67.1374 31.0305 67.1374 24.6221C67.1691 20.0898 65.514 15.7051 62.4891 12.3082L62.4956 12.3044ZM49.1402 17.0427C46.6697 16.9002 44.2174 16.534 41.8141 15.9485C40.5833 15.6971 39.4193 15.1929 38.3967 14.4683C39.1556 13.8114 39.9944 13.2512 40.8935 12.8008C43.5661 11.3411 47.2292 9.33752 50.2806 9.33752C59.2799 9.33752 64.6588 17.1055 64.6588 24.617C64.6588 30.6149 62.2719 39.7888 58.4291 48.5573C56.9762 51.9858 55.2122 55.2762 53.1589 58.3879C51.2077 61.2034 49.9458 62.0243 49.5656 61.9474C49.3316 61.9012 49.307 61.737 49.1195 61.2291C48.4446 59.3525 47.8265 57.1142 47.18 54.7463C46.2947 51.0973 45.1013 47.5286 43.6127 44.0781C41.7792 40.2736 39.5772 38.4253 36.8891 38.4253H36.6563C34.0613 38.4253 31.9123 40.2595 30.084 44.0332C28.5863 47.475 27.3695 51.0305 26.4456 54.6655C25.7628 57.0526 25.1176 59.3076 24.4181 61.2252C24.263 61.6485 24.2164 61.9256 23.9307 61.9679C23.707 62.0012 22.7515 61.9281 20.3219 58.4661C18.2657 55.3968 16.5026 52.1439 15.0555 48.7497C11.2347 40.053 8.8608 30.8086 8.8608 24.6221C8.8608 17.1119 14.2384 9.34265 23.2389 9.34265C26.1837 9.54376 29.0217 10.5176 31.4624 12.1646C31.8748 12.4211 32.4554 12.8662 33.014 13.2934L33.6605 13.7846C34.4919 14.4109 35.3578 14.9907 36.2542 15.5214C36.765 15.8331 37.2958 16.1112 37.8433 16.3539C40.088 17.299 42.5021 17.7842 44.9406 17.7802C46.355 17.7966 47.7665 17.6468 49.1454 17.3339C49.1454 17.3339 49.5217 17.2351 49.51 17.1376C49.4984 17.0401 49.1402 17.0427 49.1402 17.0427Z" fill="#43CE8F"/>
<path d="M69.549 11.6633C66.901 10.3511 64.7158 8.92731 63.3944 6.30293L61.7394 3L60.0792 6.30036C58.7577 8.92475 56.5725 10.3485 53.9245 11.6607L50.6028 13.3051L53.9245 14.9534C56.5848 16.2787 58.7432 18.4199 60.0792 21.059L61.7394 24.3568L63.3996 21.059C64.7356 18.4199 66.8939 16.2787 69.5542 14.9534L73.0001 13.3051L69.549 11.6633Z" fill="#FBFBFB" stroke="#43CE8F" stroke-width="2"/>
<path d="M11.7918 36.814C10.5155 39.4634 9.11859 41.6557 6.49658 43.0122L3.19651 44.7114L6.55186 46.3005C9.21999 47.5654 10.6931 49.708 12.0619 52.3117L13.7772 55.5777L15.3805 52.2542C16.6698 49.5924 18.7903 47.4141 21.4268 46.043L24.7216 44.3387L21.3689 42.7495C18.6857 41.4704 16.4899 39.367 15.1077 36.7514L13.3863 33.3623L11.7918 36.814Z" fill="#FBFBFB" stroke="#43CE8F" stroke-width="2"/>
</svg>
