<svg width="72" height="52" viewBox="0 0 72 52" fill="none" xmlns="http://www.w3.org/2000/svg">
<path d="M58.5634 5.20597C57.41 3.77116 55.9467 2.61153 54.2813 1.81261C52.616 1.01369 50.791 0.595871 48.9412 0.589972C46.0305 0.589972 42.8919 2.44364 40.5986 3.79923C39.872 4.27795 39.0993 4.6838 38.2918 5.01078C37.4839 4.68451 36.7111 4.27863 35.9849 3.79923C33.6971 2.44364 30.5571 0.58728 27.6329 0.58728C25.7814 0.592294 23.9547 1.00995 22.2879 1.80939C20.621 2.60882 19.1564 3.76961 18.0025 5.20597C15.5901 8.17823 14.2949 11.8903 14.3387 15.7061C14.3387 21.3263 16.2249 29.3239 19.3839 37.098C20.5596 40.1026 22.0075 42.9952 23.7099 45.7403C25.4061 48.3532 26.8607 49.6227 28.1594 49.6227C28.7361 49.6227 29.7877 49.3615 30.3821 47.6034C30.9574 45.9005 31.4744 43.9459 32.0226 41.8728C33.4746 36.3858 35.2793 29.5567 38.19 29.5567H38.3732C39.6664 29.5567 40.8239 30.7427 41.9121 33.1833C43.0351 36.0265 43.9334 38.952 44.5989 41.9334C45.1241 43.9903 45.6194 45.9342 46.1757 47.6061C46.7551 49.3481 47.8041 49.6079 48.3699 49.6092C49.6617 49.6092 51.115 48.3196 52.8153 45.6676C54.519 42.8911 55.972 39.9707 57.1576 36.9405C60.3396 29.1085 62.2285 21.1661 62.2285 15.7047C62.2725 11.8889 60.9772 8.17683 58.5647 5.20463L58.5634 5.20597ZM48.0429 9.24312C46.0916 9.1212 44.1572 8.80872 42.2677 8.31023C41.2876 8.09036 40.3681 7.65978 39.5741 7.04887C40.1662 6.49485 40.8274 6.01846 41.5417 5.63136C43.6477 4.3875 46.5326 2.68326 48.9398 2.68326C56.0327 2.68326 60.2718 9.30235 60.2718 15.7034C60.2718 20.8188 58.3911 28.6265 55.3623 36.1031C54.2249 39.0096 52.8351 41.8125 51.2087 44.4803C49.6712 46.8792 48.6766 47.5765 48.3753 47.5132C48.1908 47.4742 48.1677 47.3342 48.0239 46.9007C47.492 45.3015 47.0048 43.4007 46.4905 41.3815C45.796 38.2825 44.8559 35.2429 43.6789 32.2908C42.2337 29.0492 40.4982 27.4729 38.3759 27.4729H38.1927C36.1478 27.4729 34.4529 29.0358 33.0132 32.2518C31.8292 35.1959 30.8708 38.2243 30.1459 41.3115C29.6032 43.3455 29.0997 45.2665 28.5474 46.9007C28.4253 47.2615 28.3873 47.4971 28.1634 47.5334C27.987 47.5617 27.2339 47.4998 25.3138 44.549C23.6888 41.9156 22.3037 39.1436 21.1751 36.266C18.1626 28.8621 16.29 20.9776 16.29 15.7061C16.29 9.30639 20.5292 2.68595 27.622 2.68595C29.9682 2.86614 32.2153 3.70053 34.1042 5.09289C34.4285 5.31366 34.8858 5.69059 35.3255 6.05405C35.5019 6.19944 35.6756 6.34213 35.8384 6.47271C36.491 7.00461 37.1738 7.49901 37.8833 7.95349C38.284 8.21805 38.7025 8.45508 39.1358 8.66292C40.8899 9.46359 42.7983 9.87696 44.7292 9.87447C45.8455 9.88831 46.9591 9.76074 48.0429 9.49485C48.0429 9.49485 48.3401 9.41139 48.3306 9.32793C48.3211 9.24447 48.0415 9.24312 48.0415 9.24312H48.0429Z" fill="#43CE8F"/>
<path d="M1 50.722V32.5743C1 32.5743 1.01619 26.8356 7.52009 27.1062C14.024 27.3768 14.4786 34.0538 14.4786 34.0538C14.8811 37.2886 16.2186 40.3387 18.3297 42.8362" stroke="#43CE8F" stroke-width="2"/>
<path d="M71 51.7328V33.5853C70.9938 32.7921 70.8168 32.0094 70.4807 31.2896C70.1446 30.5699 69.6572 29.9298 69.0514 29.4122C68.4448 28.8943 67.7337 28.5111 66.9656 28.2884C66.1974 28.0657 65.39 28.0087 64.5978 28.1212C58.212 28.3904 56.8632 34.9866 56.8632 34.9866C56.8632 34.9866 55.034 39.2849 52.6648 44.0637" stroke="#43CE8F" stroke-width="2"/>
</svg>
