<svg width="72" height="82" viewBox="0 0 72 82" fill="none" xmlns="http://www.w3.org/2000/svg">
<path d="M66.9521 25.0873C65.2901 23.2237 63.2457 21.7341 60.9559 20.7182C58.6662 19.7024 56.184 19.1838 53.6757 19.1973C49.6603 19.1973 45.33 21.5684 42.1652 23.2923C41.1532 23.9071 40.0845 24.425 38.9737 24.8391C37.8664 24.4262 36.8014 23.9092 35.7934 23.2951C32.637 21.5656 28.3151 19.1973 24.2646 19.1973C21.7575 19.1849 19.2767 19.704 16.9883 20.7198C14.6998 21.7356 12.6566 23.2247 10.9952 25.0873C7.70366 28.78 5.90141 33.5477 5.93378 38.477C5.93378 45.6585 8.5362 55.8584 12.8947 65.782C14.5299 69.6373 16.5302 73.3299 18.8685 76.8104C21.2081 80.1452 23.2158 81.7645 25.0069 81.7645C25.8013 81.7645 27.2565 81.4312 28.0733 79.194C28.8663 77.021 29.5805 74.5271 30.3369 71.8813C32.3404 64.8796 34.836 56.1652 38.8457 56.1652H39.0988C40.883 56.1652 42.4731 57.6785 43.9817 60.793C45.5274 64.4043 46.7689 68.1364 47.6934 71.951C48.4175 74.576 49.0993 77.0558 49.8684 79.1898C50.6684 81.4117 52.1067 81.745 52.894 81.745C54.6768 81.745 56.6817 80.0992 59.0268 76.7141C61.3619 73.1924 63.3641 69.4642 65.0077 65.577C69.3844 55.5794 71.9995 45.4493 71.9995 38.4811C72.034 33.5528 70.2342 28.7851 66.9451 25.0915L66.9521 25.0873ZM52.43 30.2395C49.7437 30.0846 47.0772 29.6864 44.4639 29.0498C43.1256 28.7764 41.8599 28.2281 40.748 27.4403C41.5732 26.7259 42.4852 26.1168 43.4629 25.6271C46.369 24.0399 50.3521 21.8613 53.6701 21.8613C63.4555 21.8613 69.3043 30.3079 69.3043 38.4756C69.3043 44.9974 66.7089 54.9727 62.5304 64.5072C60.9506 68.2352 59.0325 71.8131 56.7998 75.1966C54.6782 78.2581 53.306 79.1508 52.8926 79.0671C52.6381 79.0169 52.6114 78.8383 52.4076 78.286C51.6736 76.2455 51.0016 73.8116 50.2986 71.2369C49.3359 67.2691 48.0383 63.3887 46.4196 59.6368C44.426 55.4999 42.0316 53.4901 39.1086 53.4901H38.8556C36.0338 53.4901 33.6971 55.4846 31.7091 59.5879C30.0805 63.3304 28.7574 67.1965 27.7528 71.1491C27.0104 73.7447 26.3089 76.1967 25.5482 78.2818C25.3795 78.7421 25.3289 79.0434 25.0182 79.0894C24.775 79.1257 23.736 79.0462 21.0942 75.2817C18.8583 71.9443 16.9412 68.4072 15.3677 64.7164C11.2131 55.26 8.6318 45.208 8.6318 38.4811C8.6318 30.3149 14.4792 21.8668 24.266 21.8668C27.4681 22.0855 30.554 23.1445 33.2079 24.9353C33.6564 25.2142 34.2876 25.6982 34.895 26.1627L35.598 26.6969C36.502 27.3779 37.4436 28.0083 38.4183 28.5854C38.9737 28.9243 39.5509 29.2267 40.1462 29.4906C42.587 30.5182 45.212 31.0458 47.8635 31.0415C49.4015 31.0593 50.9363 30.8964 52.4357 30.5562C52.4357 30.5562 52.8448 30.4488 52.8322 30.3428C52.8195 30.2368 52.43 30.2395 52.43 30.2395Z" fill="#43CE8F"/>
<path d="M60.7661 14.6436C63.4838 14.6436 65.6869 12.458 65.6869 9.7619C65.6869 7.06584 63.4838 4.88025 60.7661 4.88025C58.0483 4.88025 55.8452 7.06584 55.8452 9.7619C55.8452 12.458 58.0483 14.6436 60.7661 14.6436Z" stroke="#43CE8F"/>
<path d="M27.023 34.1699C28.1877 34.1699 29.1319 33.2333 29.1319 32.0778C29.1319 30.9224 28.1877 29.9857 27.023 29.9857C25.8583 29.9857 24.9141 30.9224 24.9141 32.0778C24.9141 33.2333 25.8583 34.1699 27.023 34.1699Z" stroke="#43CE8F"/>
<path d="M16.4784 50.9071C18.0314 50.9071 19.2903 49.6582 19.2903 48.1175C19.2903 46.5768 18.0314 45.3279 16.4784 45.3279C14.9254 45.3279 13.6665 46.5768 13.6665 48.1175C13.6665 49.6582 14.9254 50.9071 16.4784 50.9071Z" stroke="#43CE8F"/>
<path d="M15.7754 16.038C16.9401 16.038 17.8843 15.1013 17.8843 13.9459C17.8843 12.7904 16.9401 11.8538 15.7754 11.8538C14.6107 11.8538 13.6665 12.7904 13.6665 13.9459C13.6665 15.1013 14.6107 16.038 15.7754 16.038Z" stroke="#43CE8F"/>
<path d="M31.2412 7.66943C33.1824 7.66943 34.756 6.10831 34.756 4.18256C34.756 2.25681 33.1824 0.695679 31.2412 0.695679C29.3 0.695679 27.7263 2.25681 27.7263 4.18256C27.7263 6.10831 29.3 7.66943 31.2412 7.66943Z" stroke="#43CE8F"/>
<path d="M61.5591 41.8984C59.1674 40.9466 57.176 39.2117 55.9156 36.9819L54.3916 33.9482L52.8689 36.9749C51.6085 39.2047 49.617 40.9396 47.2254 41.8915L44.1787 43.4006L47.2254 44.9125C49.6648 46.1277 51.644 48.0911 52.8689 50.5112L54.3916 53.535L55.9142 50.5112C57.139 48.0911 59.1182 46.1277 61.5577 44.9125L64.7183 43.4006L61.5591 41.8984Z" fill="#FBFBFB" stroke="#43CE8F" stroke-width="2"/>
<path d="M13.6567 31.7794C12.0523 31.1413 10.7162 29.9777 9.8705 28.4821L8.84981 26.45L7.82907 28.4808C6.98334 29.9763 5.64728 31.1399 4.04285 31.778L2 32.7892L4.04285 33.8032C5.67961 34.6183 7.0075 35.9356 7.82907 37.5594L8.84981 39.5874L9.8705 37.5594C10.6921 35.9356 12.02 34.6183 13.6567 33.8032L15.7755 32.7892L13.6567 31.7794Z" fill="#FBFBFB" stroke="#43CE8F"/>
</svg>
