<svg width="70" height="67" viewBox="0 0 70 67" fill="none" xmlns="http://www.w3.org/2000/svg">
<path d="M64.6516 6.24101C62.8906 4.26644 60.7245 2.68811 58.2984 1.61178C55.8723 0.535459 53.2424 -0.0139871 50.5848 0.000270535C46.3303 0.000270535 41.7422 2.51253 38.3889 4.33909C37.3167 4.99049 36.1844 5.53925 35.0074 5.97797C33.8342 5.54052 32.7058 4.99272 31.6378 4.34204C28.2935 2.50957 23.7143 0.000270535 19.4226 0.000270535C16.7663 -0.012837 14.1378 0.537162 11.7131 1.61345C9.28842 2.68973 7.12348 4.26746 5.36322 6.24101C1.87571 10.1536 -0.0338429 15.2052 0.000454099 20.4279C0.000454099 28.0371 2.75781 38.8442 7.37575 49.3588C9.10841 53.4435 11.2278 57.356 13.7053 61.0437C16.1841 64.5771 18.3113 66.2928 20.2092 66.2928C21.0508 66.2928 22.5926 65.9397 23.4581 63.5693C24.2983 61.2669 25.055 58.6246 25.8564 55.8212C27.9792 48.4026 30.6234 39.1693 34.8719 39.1693H35.14C37.0304 39.1693 38.7152 40.7727 40.3136 44.0727C41.9513 47.899 43.2667 51.8533 44.2463 55.8951C45.0135 58.6763 45.7359 61.3038 46.5508 63.5648C47.3984 65.919 48.9223 66.2722 49.7565 66.2722C51.6454 66.2722 53.7697 64.5284 56.2544 60.9417C58.7286 57.2103 60.8499 53.2601 62.5914 49.1415C67.2287 38.5487 69.9995 27.8154 69.9995 20.4323C70.036 15.2106 68.1291 10.159 64.6442 6.24545L64.6516 6.24101ZM49.2649 11.7C46.4186 11.5359 43.5934 11.1139 40.8245 10.4394C39.4066 10.1497 38.0654 9.56883 36.8874 8.73406C37.7617 7.97719 38.7281 7.3318 39.7639 6.81292C42.843 5.13119 47.0632 2.82287 50.5788 2.82287C60.9468 2.82287 67.1438 11.7724 67.1438 20.4264C67.1438 27.3366 64.3939 37.9058 59.9666 48.008C58.2927 51.958 56.2604 55.7489 53.8948 59.3339C51.6469 62.5777 50.193 63.5235 49.755 63.4348C49.4854 63.3816 49.4571 63.1924 49.2411 62.6072C48.4635 60.4452 47.7514 57.8664 47.0066 55.1384C45.9866 50.9344 44.6118 46.8229 42.8966 42.8476C40.7843 38.4644 38.2474 36.3349 35.1504 36.3349H34.8823C31.8925 36.3349 29.4167 38.4482 27.3104 42.7958C25.5848 46.7611 24.183 50.8574 23.1185 55.0453C22.3319 57.7955 21.5886 60.3935 20.7827 62.6028C20.6039 63.0905 20.5503 63.4097 20.2211 63.4584C19.9634 63.4969 18.8625 63.4126 16.0634 59.424C13.6944 55.8879 11.6632 52.1402 9.99606 48.2297C5.59412 38.2102 2.85911 27.5597 2.85911 20.4323C2.85911 11.7798 9.05459 2.82878 19.4241 2.82878C22.8168 3.06048 26.0865 4.18249 28.8983 6.07994C29.3735 6.3755 30.0424 6.88829 30.6859 7.3804L31.4307 7.9464C32.3886 8.66793 33.3862 9.33595 34.419 9.94734C35.0074 10.3064 35.619 10.6268 36.2498 10.9064C38.8359 11.9953 41.6172 12.5543 44.4265 12.5497C46.0561 12.5686 47.6822 12.396 49.2709 12.0355C49.2709 12.0355 49.7044 11.9217 49.691 11.8094C49.6776 11.697 49.2649 11.7 49.2649 11.7Z" fill="#43CE8F"/>
<path d="M57.4415 18.3899C57.4415 18.3899 53.4805 14.1783 47.7588 18.3899" stroke="#43CE8F" stroke-linecap="round"/>
<path d="M23.1794 18.3899C23.1794 18.3899 19.2184 14.1783 13.4966 18.3899" stroke="#43CE8F" stroke-linecap="round"/>
<path d="M46.4437 26.0529C46.4437 26.0529 44.6427 34.1968 30.8872 30.8541" stroke="#43CE8F" stroke-width="1.5" stroke-linecap="round"/>
</svg>
